:SAMPLES-PER-SECOND 30
:FULLY-SPECIFIED
:DEGREES
369
root  -3.38206 41.0119 0.270747 163.871 -89.2134 -161.037
RightUpLeg  1.15439 -0.762272 -0.65343
RightLeg  -5.43038 -18.757 2.52618
RightFoot  2.24118 -0.227625 2.06633
RightToes  -3.13588e-008 1.75238e-005 3.56266e-009
Spine  3.86837 3.05494 4.30755
Spine1  -6.52301 3.75391 -5.87126
HEad  -12.1394 -4.76791 4.3845
LeftShoulder1  1.131 -0.469121 -22.1189
LeftArm  -39.3891 28.5962 -62.9713
LeftForeArm  43.2415 -73.0424 -34.0523
LeftHand  -0.50896 -3.41028 6.96594
RightShoulder  1.63413 2.78449 19.6011
RightArm  3.31 33.144 56.2041
RightForeArm  102.067 79.7167 101.661
RightHand  -0.69683 9.18488 -5.92448
LeftUpLeg  1.31869 1.05899 3.51003
LeftLeg  -4.69995 16.2516 -1.149
LeftFoot  2.01861 0.434566 -3.78487
LeftToes  4.76812e-008 1.47286e-008 1.3089e-009
370
root  -3.35455 41.0121 0.262842 169.643 -88.5332 -166.878
RightUpLeg  1.07094 -0.644078 -0.566404
RightLeg  -5.33674 -18.2035 2.39497
RightFoot  2.29972 -0.222607 1.99488
RightToes  -3.13588e-008 1.75238e-005 3.56266e-009
Spine  4.17198 3.29204 4.56345
Spine1  -6.64031 4.03478 -6.19337
HEad  -12.1253 -4.8198 4.31552
LeftShoulder1  1.11211 -0.400155 -22.1392
LeftArm  -39.9207 29.5289 -63.3743
LeftForeArm  42.8605 -72.7199 -33.1994
LeftHand  -0.569829 -3.06343 8.0601
RightShoulder  1.73391 3.05473 20.085
RightArm  5.71961 32.9547 57.3455
RightForeArm  98.6758 79.836 98.0221
RightHand  -0.63876 9.42468 -5.38401
LeftUpLeg  1.45662 1.13699 3.56719
LeftLeg  -4.69477 16.8434 -1.20482
LeftFoot  1.99737 0.432285 -3.73449
LeftToes  4.76812e-008 1.47286e-008 1.3089e-009
371
root  -3.37438 41.0123 0.272326 175.362 -87.5903 -172.9
RightUpLeg  1.23272 -0.581341 -0.558528
RightLeg  -5.1051 -17.3238 2.15039
RightFoot  2.25271 -0.227525 2.07681
RightToes  -3.13588e-008 1.75238e-005 3.56266e-009
Spine  4.05925 3.59249 4.73654
Spine1  -6.06743 4.39147 -6.37938
HEad  -12.3977 -4.81845 4.61239
LeftShoulder1  1.10148 -0.347099 -22.2614
LeftArm  -40.4068 30.2635 -63.4181
LeftForeArm  42.4807 -72.5862 -32.9142
LeftHand  -0.554954 -3.06617 7.86121
RightShoulder  1.81692 3.31002 20.3298
RightArm  6.19605 33.2317 57.8262
RightForeArm  94.0974 79.9134 93.4724
RightHand  -0.675971 9.56958 -5.62912
LeftUpLeg  2.11228 1.24585 3.56207
LeftLeg  -5.02036 17.6548 -1.41398
LeftFoot  1.98013 0.436971 -3.848
LeftToes  4.76812e-008 1.47286e-008 1.3089e-009
372
root  -3.37261 41.0124 0.288071 173.643 -87.2288 -171.126
RightUpLeg  1.15437 -0.482178 -0.458164
RightLeg  -5.14814 -17.0694 2.14097
RightFoot  2.34588 -0.227268 2.07774
RightToes  -3.13588e-008 1.75238e-005 3.56266e-009
Spine  3.94473 3.67187 4.93617
Spine1  -6.02579 4.49012 -6.57655
HEad  -12.5246 -4.52153 4.85571
LeftShoulder1  1.10259 -0.365767 -22.1467
LeftArm  -40.6599 30.972 -63.3711
LeftForeArm  42.4176 -72.4534 -32.5631
LeftHand  -0.508503 -3.42483 6.94634
RightShoulder  1.80667 3.28456 20.2751
RightArm  4.45684 33.3303 57.0156
RightForeArm  90.0416 79.9295 89.4175
RightHand  -0.684626 9.08645 -5.86282
LeftUpLeg  2.00107 1.34602 3.66472
LeftLeg  -4.80856 17.8896 -1.3949
LeftFoot  1.87404 0.423741 -3.75624
LeftToes  4.76812e-008 1.47286e-008 1.3089e-009
373
root  -3.36662 41.0125 0.295211 173.505 -87.14 -170.915
RightUpLeg  1.05962 -0.453141 -0.439007
RightLeg  -5.15095 -17.0163 2.14623
RightFoot  2.33643 -0.225253 2.05071
RightToes  -3.13588e-008 1.75238e-005 3.56266e-009
Spine  4.17811 3.59768 4.52981
Spine1  -6.72 4.33788 -6.24364
HEad  -11.444 -4.74689 4.65168
LeftShoulder1  1.06911 -0.263318 -22.0207
LeftArm  -40.7512 31.9219 -63.1548
LeftForeArm  42.6861 -72.5708 -32.8245
LeftHand  -0.528705 -3.33637 7.28058
RightShoulder  1.78965 3.25914 20.109
RightArm  0.0174418 33.0573 54.6183
RightForeArm  86.2607 79.8838 86.1391
RightHand  -0.676314 9.48731 -5.65328
LeftUpLeg  1.89158 1.37013 3.69013
LeftLeg  -4.74421 17.9448 -1.39774
LeftFoot  1.83224 0.421892 -3.75893
LeftToes  4.76812e-008 1.47286e-008 1.3089e-009
